<svg width="15" height="50" viewBox="0 0 15 50" fill="none" xmlns="http://www.w3.org/2000/svg">
<path d="M7.538 40.082C8.666 40.082 9.644 40.205 10.472 40.451C11.3 40.691 11.987 41.024 12.533 41.45C13.073 41.87 13.475 42.368 13.739 42.944C14.003 43.514 14.135 44.129 14.135 44.789C14.135 45.449 14.003 46.067 13.739 46.643C13.475 47.213 13.073 47.708 12.533 48.128C11.987 48.548 11.3 48.878 10.472 49.118C9.644 49.358 8.666 49.478 7.538 49.478C6.41 49.478 5.432 49.358 4.604 49.118C3.77 48.878 3.083 48.548 2.543 48.128C1.997 47.708 1.592 47.213 1.328 46.643C1.064 46.067 0.932 45.449 0.932 44.789C0.932 44.129 1.064 43.514 1.328 42.944C1.592 42.368 1.997 41.87 2.543 41.45C3.083 41.024 3.77 40.691 4.604 40.451C5.432 40.205 6.41 40.082 7.538 40.082ZM7.538 41.9C6.566 41.9 5.753 41.981 5.099 42.143C4.445 42.299 3.92 42.512 3.524 42.782C3.122 43.046 2.837 43.352 2.669 43.7C2.501 44.048 2.417 44.411 2.417 44.789C2.417 45.167 2.501 45.53 2.669 45.878C2.837 46.226 3.122 46.535 3.524 46.805C3.92 47.069 4.445 47.279 5.099 47.435C5.753 47.591 6.566 47.669 7.538 47.669C8.51 47.669 9.323 47.591 9.977 47.435C10.631 47.279 11.156 47.069 11.552 46.805C11.948 46.535 12.23 46.226 12.398 45.878C12.566 45.53 12.65 45.167 12.65 44.789C12.65 44.411 12.566 44.048 12.398 43.7C12.23 43.352 11.948 43.046 11.552 42.782C11.156 42.512 10.631 42.299 9.977 42.143C9.323 41.981 8.51 41.9 7.538 41.9ZM12.659 30.3606H14V37.3446L12.659 37.3446V34.6086H4.19C3.92 34.6086 3.641 34.5996 3.353 34.5816L5.216 36.7776C5.282 36.8616 5.324 36.9456 5.342 37.0296C5.36 37.1136 5.363 37.1946 5.351 37.2726C5.339 37.3446 5.315 37.4106 5.279 37.4706C5.237 37.5246 5.195 37.5696 5.153 37.6056L4.388 38.1546L1.049 34.2846V32.8536H12.659V30.3606ZM14.7324 25.1035L14.7324 26.0352L5.46875 22.4727L5.46875 21.5469L14.7324 25.1035Z" fill="#10375C"/>
<path d="M8.272 9.41875C9.27467 9.41875 10.144 9.52808 10.88 9.74675C11.6107 9.96008 12.216 10.2534 12.696 10.6267C13.176 11.0001 13.5333 11.4427 13.768 11.9547C14.0027 12.4614 14.12 13.0054 14.12 13.5867C14.12 14.1734 14.0027 14.7201 13.768 15.2267C13.5333 15.7281 13.176 16.1654 12.696 16.5387C12.216 16.9121 11.6107 17.2054 10.88 17.4187C10.144 17.6321 9.27467 17.7387 8.272 17.7387C7.26933 17.7387 6.4 17.6321 5.664 17.4187C4.928 17.2054 4.32 16.9121 3.84 16.5387C3.35467 16.1654 2.99467 15.7281 2.76 15.2267C2.52533 14.7201 2.408 14.1734 2.408 13.5867C2.408 13.0054 2.52533 12.4614 2.76 11.9547C2.99467 11.4427 3.35467 11.0001 3.84 10.6267C4.32 10.2534 4.928 9.96008 5.664 9.74675C6.4 9.52808 7.26933 9.41875 8.272 9.41875ZM8.272 10.8987C7.39733 10.8987 6.664 10.9734 6.072 11.1227C5.47467 11.2667 4.99467 11.4641 4.632 11.7147C4.26933 11.9601 4.01067 12.2454 3.856 12.5707C3.696 12.8961 3.616 13.2347 3.616 13.5867C3.616 13.9387 3.696 14.2774 3.856 14.6027C4.01067 14.9281 4.26933 15.2134 4.632 15.4587C4.99467 15.7041 5.47467 15.9014 6.072 16.0507C6.664 16.1947 7.39733 16.2667 8.272 16.2667C9.14667 16.2667 9.88 16.1947 10.472 16.0507C11.064 15.9014 11.5413 15.7041 11.904 15.4587C12.2667 15.2134 12.528 14.9281 12.688 14.6027C12.8427 14.2774 12.92 13.9387 12.92 13.5867C12.92 13.2347 12.8427 12.8961 12.688 12.5707C12.528 12.2454 12.2667 11.9601 11.904 11.7147C11.5413 11.4641 11.064 11.2667 10.472 11.1227C9.88 10.9734 9.14667 10.8987 8.272 10.8987ZM9.864 3.0975L5.136 3.0975C4.99733 3.0975 4.84533 3.09217 4.68 3.0815C4.51467 3.07083 4.34667 3.05483 4.176 3.0335L9.864 7.2095V3.0975ZM9.864 0.1135H10.68C10.7653 0.1135 10.8373 0.140166 10.896 0.1935C10.9547 0.241499 10.984 0.318833 10.984 0.4255V1.8495H14V3.0975H10.984V8.1855C10.984 8.29217 10.9547 8.3855 10.896 8.4655C10.832 8.54017 10.7547 8.58817 10.664 8.6095L9.936 8.7535L2.536 3.1775V1.8495L9.864 1.8495V0.1135Z" fill="#9A9A9A"/>
</svg>
